<?xml version="1.0" encoding="UTF-8" standalone="no"?>
<!-- Created with Inkscape (http://www.inkscape.org/) -->

<svg
   version="1.1"
   id="svg1"
   width="1198.548"
   height="1198.755"
   viewBox="0 0 1198.548 1198.755"
   sodipodi:docname="Profile.svg"
   inkscape:version="1.3 (0e150ed6c4, 2023-07-21)"
   xmlns:inkscape="http://www.inkscape.org/namespaces/inkscape"
   xmlns:sodipodi="http://sodipodi.sourceforge.net/DTD/sodipodi-0.dtd"
   xmlns="http://www.w3.org/2000/svg"
   xmlns:svg="http://www.w3.org/2000/svg">
  <defs
     id="defs1" />
  <sodipodi:namedview
     id="namedview1"
     pagecolor="#ffffff"
     bordercolor="#000000"
     borderopacity="0.25"
     inkscape:showpageshadow="2"
     inkscape:pageopacity="0.0"
     inkscape:pagecheckerboard="0"
     inkscape:deskcolor="#d1d1d1"
     inkscape:zoom="1.0141667"
     inkscape:cx="600"
     inkscape:cy="600"
     inkscape:window-width="2560"
     inkscape:window-height="1494"
     inkscape:window-x="-11"
     inkscape:window-y="-11"
     inkscape:window-maximized="1"
     inkscape:current-layer="g1" />
  <g
     inkscape:groupmode="layer"
     inkscape:label="Image"
     id="g1">
    <path
       style="fill:#000000"
       d="M 582.27407,1198.5403 C 446.09147,1194.2859 319.67265,1146.3747 214.77408,1059.2621 191.73336,1040.128 158.48402,1006.8935 139.15739,983.67924 65.15598,894.79189 18.21653,786.98679 4.39792,674.17929 1.11579,647.38576 0,628.35764 0,599.17929 c 0,-29.17835 1.11579,-48.20647 4.39792,-75 C 23.99615,364.19022 109.44886,217.23415 239.77408,119.39449 332.05665,50.114767 439.62186,9.9130573 556.27407,1.1049473 c 19.563,-1.47716001 66.8266,-1.47235001 86.5,0.009 79.0245,5.94947 151.2047,25.6288797 222,60.5266697 180.20053,88.827903 305.04673,264.149103 329.37413,462.538873 3.2831,26.7743 4.4,45.81136 4.4,75 0,57.48244 -6.7453,107.4851 -21.8066,161.6507 -61.404,220.83045 -246.65823,388.90411 -472.61953,428.78861 -37.1372,6.5551 -85.1264,10.0689 -121.848,8.9217 z m 69,-151.7898 c 42.5378,-4.7434 82.5052,-13.4957 123.5,-27.0449 64.1649,-21.20706 119.3642,-50.72716 163.5,-87.43826 8.8501,-7.3614 30,-28.00615 30,-29.28355 0,-2.5324 -27.2557,-12.2755 -74.9632,-26.7971 -49.7375,-15.1395 -67.2637,-21.6158 -87.023,-32.1569 -27.0209,-14.4148 -51.3944,-35.3234 -65.2385,-55.9641 -10.4556,-15.5888 -20.4987,-39.5045 -22.4263,-53.4039 l -0.5571,-4.0175 11.0225,-9.8 c 18.2329,-16.2106 34.1919,-34.89798 49.673,-58.165 21.6915,-32.60089 36.4806,-62.94599 50.0081,-102.6091 2.2464,-6.58659 4.8512,-11.77662 8.2812,-16.5 7.2501,-9.98422 15.9437,-24.55034 20.8241,-34.8909 8.1262,-17.21797 11.3551,-29.85332 11.3818,-44.5399 0.029,-15.73893 -3.5457,-25.58284 -13.2381,-36.45736 l -4.9971,-5.60668 -0.831,-12.19803 c -5.1537,-75.64668 -34.5421,-143.17092 -83.8996,-192.77155 -56.9507,-57.23127 -132.4455,-81.03094 -207.2271,-65.32817 -74.20329,15.58134 -140.54987,72.39489 -175.81331,150.55151 -14.50001,32.1373 -23.78484,67.67642 -27.06655,103.60137 l -1.20213,13.15972 -5.3219,3.53355 c -9.71515,6.4505 -16.95245,17.78154 -19.44302,30.44086 -1.86178,9.46322 -0.70821,26.65354 2.52415,37.61468 6.75263,22.89857 19.63897,45.25568 39.12112,67.87303 6.89171,8.00077 8.03122,9.98069 13.20372,22.94172 7.26443,18.20293 20.77581,45.62923 30.59582,62.10546 16.10236,27.01691 30.82748,46.03189 51.88907,67.00569 l 14.98834,14.9259 -1.70014,7.9118 c -2.60461,12.1206 -6.14745,22.0826 -12.53137,35.2364 -12.58906,25.9392 -32.13516,47.4861 -59.03349,65.0763 -24.85834,16.2562 -41.4847,22.8478 -107,42.4208 -41.64202,12.4408 -72,23.0339 -72,25.1236 0,0.533 4.1625,5.2837 9.25,10.5572 69.9636,72.52105 194.8906,125.66551 320.24999,136.23561 16.7833,1.4151 74.3443,0.5707 91.5,-1.3423 z"
       id="path1" />
  </g>
</svg>
